<svg width="15" height="15" viewBox="0 0 15 15" fill="none" xmlns="http://www.w3.org/2000/svg">
<path d="M3.63924 7.48902H11.2926V8.92636H12.0392V6.74236H7.83924V5.24902H7.09258V6.74236H2.89258V8.92636H3.63924V7.48902Z" fill="#172B4D"/>
<path d="M5.6 9.44824H0.933333C0.417868 9.44824 0 9.86611 0 10.3816V13.1816C0 13.697 0.417868 14.1149 0.933333 14.1149H5.6C6.11547 14.1149 6.53333 13.697 6.53333 13.1816V10.3816C6.53333 9.86611 6.11547 9.44824 5.6 9.44824Z" fill="#172B4D"/>
<path d="M14.0004 9.44824H9.33372C8.81826 9.44824 8.40039 9.86611 8.40039 10.3816V13.1816C8.40039 13.697 8.81826 14.1149 9.33372 14.1149H14.0004C14.5159 14.1149 14.9337 13.697 14.9337 13.1816V10.3816C14.9337 9.86611 14.5159 9.44824 14.0004 9.44824Z" fill="#172B4D"/>
<path d="M9.79922 0.115234H5.13255C4.61709 0.115234 4.19922 0.533102 4.19922 1.04857V3.84857C4.19922 4.36403 4.61709 4.7819 5.13255 4.7819H9.79922C10.3147 4.7819 10.7326 4.36403 10.7326 3.84857V1.04857C10.7326 0.533102 10.3147 0.115234 9.79922 0.115234Z" fill="#172B4D"/>
</svg>
