<svg width="15" height="16" viewBox="0 0 15 16" fill="none" xmlns="http://www.w3.org/2000/svg">
<path d="M6.11328 6.48828C7.49399 6.48828 8.61328 5.36899 8.61328 3.98828C8.61328 2.60757 7.49399 1.48828 6.11328 1.48828C4.73257 1.48828 3.61328 2.60757 3.61328 3.98828C3.61328 5.36899 4.73257 6.48828 6.11328 6.48828Z" fill="#172B4D"/>
<path d="M6.85065 13.7882C6.71296 13.652 6.6231 13.4749 6.59456 13.2833C6.56601 13.0918 6.60031 12.8961 6.69232 12.7257L6.91315 12.309L6.45898 12.1715C6.27378 12.1136 6.11255 11.9968 5.99975 11.8388C5.88695 11.6809 5.82875 11.4905 5.83398 11.2965V10.4424C5.83363 10.2492 5.89542 10.0611 6.01022 9.90577C6.12502 9.75046 6.28674 9.63619 6.47148 9.57986L6.92565 9.44236L6.70898 9.02569C6.61968 8.8576 6.58569 8.66561 6.61188 8.47708C6.63806 8.28854 6.72308 8.11308 6.85482 7.97569C6.53427 7.93367 6.21144 7.9114 5.88815 7.90902C4.93329 7.88655 3.98522 8.07505 3.11158 8.4611C2.23795 8.84714 1.46026 9.42121 0.833984 10.1424V13.3715C0.833984 13.482 0.877883 13.588 0.956023 13.6662C1.03416 13.7443 1.14014 13.7882 1.25065 13.7882H6.85065Z" fill="#172B4D"/>
<path d="M14.0419 10.3057L13.2086 10.0557C13.1509 9.84995 13.0698 9.65143 12.9669 9.46407L13.3836 8.68907C13.3997 8.6603 13.4056 8.62693 13.4003 8.59439C13.395 8.56185 13.3788 8.53207 13.3544 8.5099L12.7503 7.90157C12.727 7.87892 12.6973 7.86398 12.6653 7.85876C12.6332 7.85354 12.6004 7.8583 12.5711 7.8724L11.8003 8.28907C11.6105 8.186 11.4109 8.10224 11.2044 8.03907L10.9503 7.20573C10.9391 7.17501 10.9187 7.1485 10.8918 7.12985C10.8649 7.11119 10.833 7.10132 10.8003 7.10157H9.9336C9.90112 7.10247 9.86969 7.11336 9.8436 7.13274C9.81751 7.15212 9.79802 7.17906 9.78777 7.2099L9.53777 8.04323C9.32729 8.10447 9.12456 8.18976 8.9336 8.2974L8.17944 7.88073C8.15012 7.86515 8.11664 7.85918 8.08374 7.86367C8.05084 7.86815 8.02018 7.88287 7.9961 7.90573L7.3836 8.50573C7.35949 8.52898 7.3436 8.55944 7.33833 8.59252C7.33307 8.6256 7.33872 8.65949 7.35444 8.68907L7.7711 9.4474C7.65948 9.6356 7.56867 9.83539 7.50027 10.0432L6.66694 10.2974C6.63541 10.3065 6.60775 10.3257 6.58818 10.3521C6.56861 10.3784 6.55822 10.4104 6.5586 10.4432V11.2974C6.55822 11.3302 6.56861 11.3622 6.58818 11.3886C6.60775 11.4149 6.63541 11.4341 6.66694 11.4432L7.50027 11.6974C7.56273 11.9015 7.64653 12.0984 7.75027 12.2849L7.3336 13.0766C7.31789 13.1061 7.31224 13.14 7.3175 13.1731C7.32276 13.2062 7.33865 13.2367 7.36277 13.2599L7.9836 13.8641C8.00768 13.8869 8.03834 13.9016 8.07124 13.9061C8.10414 13.9106 8.13762 13.9047 8.16694 13.8891L8.9461 13.4724C9.13153 13.5721 9.32709 13.6517 9.52944 13.7099L9.77944 14.5641C9.78992 14.5956 9.81005 14.623 9.83697 14.6424C9.86388 14.6619 9.89623 14.6724 9.92944 14.6724H10.7836C10.8161 14.6715 10.8475 14.6606 10.8736 14.6412C10.8997 14.6218 10.9192 14.5949 10.9294 14.5641L11.1794 13.7099C11.3794 13.6525 11.5722 13.5728 11.7544 13.4724L12.5419 13.8891C12.5713 13.9047 12.6047 13.9106 12.6376 13.9061C12.6705 13.9016 12.7012 13.8869 12.7253 13.8641L13.3336 13.2599C13.3565 13.2358 13.3712 13.2052 13.3757 13.1723C13.3802 13.1394 13.3742 13.1059 13.3586 13.0766L12.9419 12.2932C13.0416 12.1107 13.1212 11.9179 13.1794 11.7182L14.0128 11.4641C14.0441 11.454 14.0716 11.4347 14.0917 11.4086C14.1118 11.3826 14.1235 11.3511 14.1253 11.3182V10.4557C14.1263 10.4255 14.1191 10.3956 14.1044 10.3692C14.0897 10.3428 14.0681 10.3208 14.0419 10.3057ZM10.3628 12.2724C10.0873 12.2732 9.81788 12.1923 9.58847 12.0399C9.35906 11.8875 9.18004 11.6704 9.07407 11.4162C8.9681 11.162 8.93995 10.882 8.99317 10.6118C9.0464 10.3416 9.17861 10.0932 9.37307 9.89816C9.56753 9.70311 9.8155 9.57016 10.0856 9.51612C10.3556 9.46208 10.6357 9.4894 10.8902 9.59461C11.1447 9.69982 11.3623 9.87819 11.5154 10.1071C11.6685 10.3361 11.7503 10.6053 11.7503 10.8807C11.7503 11.2491 11.6042 11.6025 11.3441 11.8633C11.084 12.1242 10.7311 12.2713 10.3628 12.2724Z" fill="#172B4D"/>
</svg>
