<svg width="14" height="13" viewBox="0 0 14 13" fill="none" xmlns="http://www.w3.org/2000/svg">
<path d="M7.00279 0.860352C6.74031 0.860352 6.48039 0.912052 6.23789 1.0125C5.99538 1.11295 5.77504 1.26018 5.58943 1.44579C5.40382 1.63139 5.25659 1.85174 5.15615 2.09424C5.0557 2.33675 5.004 2.59666 5.004 2.85915C5.004 3.12163 5.0557 3.38155 5.15615 3.62406C5.25659 3.86656 5.40382 4.08691 5.58943 4.27251C5.77504 4.45812 5.99538 4.60535 6.23789 4.7058C6.48039 4.80625 6.74031 4.85795 7.00279 4.85795C7.53291 4.85795 8.04131 4.64736 8.41616 4.27251C8.791 3.89766 9.00159 3.38926 9.00159 2.85915C9.00159 2.32903 8.791 1.82063 8.41616 1.44579C8.04131 1.07094 7.53291 0.860352 7.00279 0.860352ZM11.5046 1.85875C11.1066 1.85875 10.7249 2.01685 10.4435 2.29826C10.1621 2.57968 10.004 2.96136 10.004 3.35935C10.004 3.75733 10.1621 4.13902 10.4435 4.42043C10.7249 4.70185 11.1066 4.85995 11.5046 4.85995C11.9026 4.85995 12.2843 4.70185 12.5657 4.42043C12.8471 4.13902 13.0052 3.75733 13.0052 3.35935C13.0052 2.96136 12.8471 2.57968 12.5657 2.29826C12.2843 2.01685 11.9026 1.85875 11.5046 1.85875ZM2.501 1.85875C2.10301 1.85875 1.72133 2.01685 1.43991 2.29826C1.1585 2.57968 1.0004 2.96136 1.0004 3.35935C1.0004 3.75733 1.1585 4.13902 1.43991 4.42043C1.72133 4.70185 2.10301 4.85995 2.501 4.85995C2.89898 4.85995 3.28066 4.70185 3.56208 4.42043C3.8435 4.13902 4.0016 3.75733 4.0016 3.35935C4.0016 2.96136 3.8435 2.57968 3.56208 2.29826C3.28066 2.01685 2.89898 1.85875 2.501 1.85875ZM4.0016 6.85374C4.00344 6.58964 4.10966 6.33698 4.29707 6.15088C4.48448 5.96478 4.73788 5.86034 5.002 5.86035H9.00359C9.26891 5.86035 9.52337 5.96575 9.71098 6.15336C9.89859 6.34097 10.004 6.59542 10.004 6.86075V9.86194C10.0039 10.1768 9.95464 10.4897 9.85793 10.7893C9.63642 11.4683 9.1801 12.0461 8.57093 12.4189C7.96176 12.7917 7.23964 12.9351 6.53423 12.8234C5.82883 12.7117 5.18635 12.3522 4.72217 11.8094C4.25798 11.2666 4.0025 10.5761 4.0016 9.86194V6.86075V6.85374ZM3.0012 6.86075C3.0012 6.4956 3.09824 6.15446 3.2693 5.86035H1.0004C0.735077 5.86035 0.480621 5.96575 0.29301 6.15336C0.105399 6.34097 1.38468e-07 6.59542 1.38468e-07 6.86075V9.36174C-0.000136102 9.77121 0.100266 10.1745 0.292389 10.536C0.484513 10.8976 0.762481 11.2065 1.10188 11.4356C1.44128 11.6647 1.83174 11.8069 2.23895 11.8498C2.64616 11.8927 3.05768 11.835 3.43737 11.6817C3.14944 11.118 2.99992 10.4939 3.0012 9.86094V6.86075ZM11.0044 6.86075V9.86194C11.0044 10.5172 10.8473 11.1355 10.5682 11.6817C10.9479 11.835 11.3594 11.8927 11.7666 11.8498C12.1739 11.8069 12.5643 11.6647 12.9037 11.4356C13.2431 11.2065 13.5211 10.8976 13.7132 10.536C13.9053 10.1745 14.0057 9.77121 14.0056 9.36174V6.86075C14.0056 6.59542 13.9002 6.34097 13.7126 6.15336C13.525 5.96575 13.2705 5.86035 13.0052 5.86035H10.7363C10.9064 6.15446 11.0044 6.4956 11.0044 6.86075Z" fill="#172B4D"/>
</svg>
