<svg width="30" height="30" viewBox="0 0 30 30" fill="none" xmlns="http://www.w3.org/2000/svg">
<path d="M19.78 0H10.0766C7.40532 0.00394912 4.8446 1.06698 2.95573 2.95607C1.06685 4.84516 0.00394866 7.40618 0 10.0778V19.7822C0 22.455 1.06164 25.0184 2.95136 26.9083C4.84109 28.7982 7.40411 29.86 10.0766 29.86H19.78C22.4524 29.86 25.0155 28.7982 26.9052 26.9083C28.7949 25.0184 29.8566 22.455 29.8566 19.7822V10.0778C29.8526 7.40618 28.7897 4.84516 26.9008 2.95607C25.012 1.06698 22.4512 0.00394912 19.78 0ZM9.01668 23.1116C8.61218 23.1116 8.21677 22.9917 7.88044 22.7669C7.54412 22.5422 7.28198 22.2227 7.12719 21.849C6.97239 21.4752 6.93189 21.064 7.0108 20.6672C7.08972 20.2704 7.2845 19.906 7.57052 19.6199C7.85655 19.3339 8.22096 19.139 8.61769 19.0601C9.01441 18.9812 9.42563 19.0217 9.79934 19.1765C10.173 19.3313 10.4925 19.5935 10.7172 19.9299C10.9419 20.2662 11.0619 20.6617 11.0619 21.0662C11.0638 21.3354 11.0123 21.6023 10.9102 21.8513C10.8081 22.1004 10.6576 22.3267 10.4673 22.517C10.277 22.7073 10.0507 22.8579 9.80168 22.96C9.55265 23.0621 9.28581 23.1136 9.01668 23.1116ZM9.01668 16.9754C8.61218 16.9754 8.21677 16.8554 7.88044 16.6307C7.54412 16.4059 7.28198 16.0865 7.12719 15.7127C6.97239 15.339 6.93189 14.9277 7.0108 14.531C7.08972 14.1342 7.2845 13.7697 7.57052 13.4837C7.85655 13.1976 8.22096 13.0028 8.61769 12.9239C9.01441 12.845 9.42563 12.8855 9.79934 13.0403C10.173 13.1951 10.4925 13.4573 10.7172 13.7936C10.9419 14.13 11.0619 14.5255 11.0619 14.93C11.074 15.2053 11.03 15.4803 10.9325 15.7381C10.835 15.9959 10.686 16.2311 10.4947 16.4295C10.3033 16.6278 10.0736 16.7851 9.81952 16.8918C9.56542 16.9985 9.29226 17.0524 9.01668 17.0501V16.9754ZM9.01668 10.8392C8.61218 10.8392 8.21677 10.7192 7.88044 10.4945C7.54412 10.2697 7.28198 9.95026 7.12719 9.57651C6.97239 9.20276 6.93189 8.7915 7.0108 8.39473C7.08972 7.99796 7.2845 7.6335 7.57052 7.34745C7.85655 7.06139 8.22096 6.86658 8.61769 6.78766C9.01441 6.70874 9.42563 6.74925 9.79934 6.90406C10.173 7.05887 10.4925 7.32104 10.7172 7.6574C10.9419 7.99377 11.0619 8.38923 11.0619 8.79377C11.0638 9.06293 11.0123 9.3298 10.9102 9.57886C10.8081 9.82792 10.6576 10.0542 10.4673 10.2445C10.277 10.4349 10.0507 10.5854 9.80168 10.6875C9.55265 10.7896 9.28581 10.8412 9.01668 10.8392ZM21.1832 22.186H14.4356C14.1387 22.186 13.8539 22.068 13.644 21.858C13.434 21.648 13.316 21.3632 13.316 21.0662C13.316 20.7693 13.434 20.4844 13.644 20.2744C13.8539 20.0645 14.1387 19.9465 14.4356 19.9465H21.1832C21.4802 19.9465 21.7649 20.0645 21.9749 20.2744C22.1849 20.4844 22.3028 20.7693 22.3028 21.0662C22.3028 21.3632 22.1849 21.648 21.9749 21.858C21.7649 22.068 21.4802 22.186 21.1832 22.186ZM21.1832 16.0498H14.4356C14.1387 16.0498 13.8539 15.9318 13.644 15.7218C13.434 15.5118 13.316 15.227 13.316 14.93C13.316 14.633 13.434 14.3482 13.644 14.1382C13.8539 13.9282 14.1387 13.8103 14.4356 13.8103H21.1832C21.4802 13.8103 21.7649 13.9282 21.9749 14.1382C22.1849 14.3482 22.3028 14.633 22.3028 14.93C22.3028 15.227 22.1849 15.5118 21.9749 15.7218C21.7649 15.9318 21.4802 16.0498 21.1832 16.0498ZM21.1832 9.91352H14.4356C14.1387 9.91352 13.8539 9.79555 13.644 9.58555C13.434 9.37556 13.316 9.09075 13.316 8.79377C13.316 8.49679 13.434 8.21198 13.644 8.00199C13.8539 7.79199 14.1387 7.67402 14.4356 7.67402H21.1832C21.4802 7.67402 21.7649 7.79199 21.9749 8.00199C22.1849 8.21198 22.3028 8.49679 22.3028 8.79377C22.3028 9.09075 22.1849 9.37556 21.9749 9.58555C21.7649 9.79555 21.4802 9.91352 21.1832 9.91352Z" fill="white"/>
</svg>
