<svg width="18" height="15" viewBox="0 0 18 15" fill="none" xmlns="http://www.w3.org/2000/svg">
<path d="M2.625 0.688477C1.17578 0.688477 0 1.86426 0 3.31348V12.0635C0 13.5127 1.17578 14.6885 2.625 14.6885H14.875C16.3242 14.6885 17.5 13.5127 17.5 12.0635V3.31348C17.5 1.86426 16.3242 0.688477 14.875 0.688477H2.625ZM1.75 3.31348C1.75 2.82949 2.14102 2.43848 2.625 2.43848H14.875C15.359 2.43848 15.75 2.82949 15.75 3.31348V12.0635C15.75 12.5475 15.359 12.9385 14.875 12.9385H2.625C2.14102 12.9385 1.75 12.5475 1.75 12.0635V3.31348ZM6.11953 5.50098C6.11953 5.32862 6.08558 5.15794 6.01962 4.9987C5.95366 4.83946 5.85699 4.69478 5.73511 4.5729C5.61323 4.45102 5.46854 4.35434 5.3093 4.28838C5.15006 4.22243 4.97939 4.18848 4.80703 4.18848C4.63467 4.18848 4.464 4.22243 4.30476 4.28838C4.14552 4.35434 4.00083 4.45102 3.87895 4.5729C3.75708 4.69478 3.6604 4.83946 3.59444 4.9987C3.52848 5.15794 3.49453 5.32862 3.49453 5.50098C3.49453 5.67334 3.52848 5.84401 3.59444 6.00325C3.6604 6.16249 3.75708 6.30718 3.87895 6.42905C4.00083 6.55093 4.14552 6.64761 4.30476 6.71357C4.464 6.77953 4.63467 6.81348 4.80703 6.81348C4.97939 6.81348 5.15006 6.77953 5.3093 6.71357C5.46854 6.64761 5.61323 6.55093 5.73511 6.42905C5.85699 6.30718 5.95366 6.16249 6.01962 6.00325C6.08558 5.84401 6.11953 5.67334 6.11953 5.50098ZM2.625 9.1459C2.625 9.54785 2.95039 9.87598 3.35508 9.87598H4.88906C5.10781 8.94355 5.78594 8.18887 6.67188 7.86348C6.4668 7.75137 6.22891 7.68848 5.98008 7.68848H4.08242C3.27852 7.68848 2.625 8.34199 2.625 9.1459ZM12.6109 9.87598H14.1449C14.5469 9.87598 14.875 9.55059 14.875 9.1459C14.875 8.33926 14.2215 7.68848 13.4176 7.68848H11.5199C11.2684 7.68848 11.0332 7.75137 10.8281 7.86348C11.7141 8.18887 12.3922 8.94355 12.6109 9.87598ZM10.1719 8.59082C10.0652 8.57168 9.95586 8.56348 9.84375 8.56348H7.65625C7.54414 8.56348 7.43477 8.57168 7.32812 8.59082C6.61719 8.71113 6.03477 9.21152 5.79961 9.87598C5.72578 10.0811 5.6875 10.3025 5.6875 10.5322C5.6875 10.8959 5.98008 11.1885 6.34375 11.1885H11.1562C11.5199 11.1885 11.8125 10.8959 11.8125 10.5322C11.8125 10.3025 11.7742 10.0811 11.7004 9.87598C11.4652 9.21152 10.8828 8.71113 10.1719 8.59082ZM14 5.50098C14 5.15288 13.8617 4.81904 13.6156 4.5729C13.3694 4.32676 13.0356 4.18848 12.6875 4.18848C12.3394 4.18848 12.0056 4.32676 11.7594 4.5729C11.5133 4.81904 11.375 5.15288 11.375 5.50098C11.375 5.84907 11.5133 6.18291 11.7594 6.42905C12.0056 6.6752 12.3394 6.81348 12.6875 6.81348C13.0356 6.81348 13.3694 6.6752 13.6156 6.42905C13.8617 6.18291 14 5.84907 14 5.50098ZM8.75 7.68848C9.21413 7.68848 9.65925 7.5041 9.98744 7.17591C10.3156 6.84772 10.5 6.40261 10.5 5.93848C10.5 5.47435 10.3156 5.02923 9.98744 4.70104C9.65925 4.37285 9.21413 4.18848 8.75 4.18848C8.28587 4.18848 7.84075 4.37285 7.51256 4.70104C7.18437 5.02923 7 5.47435 7 5.93848C7 6.40261 7.18437 6.84772 7.51256 7.17591C7.84075 7.5041 8.28587 7.68848 8.75 7.68848Z" fill="#172B4D"/>
</svg>
