<svg width="14" height="16" viewBox="0 0 14 16" fill="none" xmlns="http://www.w3.org/2000/svg">
<path d="M13.2692 2.80769H10.3846V2.23077C10.3846 1.77174 10.2023 1.33151 9.87768 1.00693C9.5531 0.682348 9.11287 0.5 8.65385 0.5H5.19231C4.73328 0.5 4.29305 0.682348 3.96847 1.00693C3.64389 1.33151 3.46154 1.77174 3.46154 2.23077V2.80769H0.576923C0.423914 2.80769 0.277171 2.86848 0.168977 2.97667C0.0607829 3.08486 0 3.23161 0 3.38462C0 3.53762 0.0607829 3.68437 0.168977 3.79256C0.277171 3.90076 0.423914 3.96154 0.576923 3.96154H1.15385V14.3462C1.15385 14.6522 1.27541 14.9457 1.4918 15.162C1.70819 15.3784 2.00167 15.5 2.30769 15.5H11.5385C11.8445 15.5 12.138 15.3784 12.3544 15.162C12.5707 14.9457 12.6923 14.6522 12.6923 14.3462V3.96154H13.2692C13.4222 3.96154 13.569 3.90076 13.6772 3.79256C13.7854 3.68437 13.8462 3.53762 13.8462 3.38462C13.8462 3.23161 13.7854 3.08486 13.6772 2.97667C13.569 2.86848 13.4222 2.80769 13.2692 2.80769ZM5.76923 11.4615C5.76923 11.6145 5.70845 11.7613 5.60025 11.8695C5.49206 11.9777 5.34532 12.0385 5.19231 12.0385C5.0393 12.0385 4.89256 11.9777 4.78436 11.8695C4.67617 11.7613 4.61538 11.6145 4.61538 11.4615V6.84615C4.61538 6.69314 4.67617 6.5464 4.78436 6.43821C4.89256 6.33001 5.0393 6.26923 5.19231 6.26923C5.34532 6.26923 5.49206 6.33001 5.60025 6.43821C5.70845 6.5464 5.76923 6.69314 5.76923 6.84615V11.4615ZM9.23077 11.4615C9.23077 11.6145 9.16999 11.7613 9.06179 11.8695C8.9536 11.9777 8.80686 12.0385 8.65385 12.0385C8.50084 12.0385 8.35409 11.9777 8.2459 11.8695C8.13771 11.7613 8.07692 11.6145 8.07692 11.4615V6.84615C8.07692 6.69314 8.13771 6.5464 8.2459 6.43821C8.35409 6.33001 8.50084 6.26923 8.65385 6.26923C8.80686 6.26923 8.9536 6.33001 9.06179 6.43821C9.16999 6.5464 9.23077 6.69314 9.23077 6.84615V11.4615ZM9.23077 2.80769H4.61538V2.23077C4.61538 2.07776 4.67617 1.93102 4.78436 1.82282C4.89256 1.71463 5.0393 1.65385 5.19231 1.65385H8.65385C8.80686 1.65385 8.9536 1.71463 9.06179 1.82282C9.16999 1.93102 9.23077 2.07776 9.23077 2.23077V2.80769Z" fill="#172B4D"/>
</svg>
